<svg width="900" height="1200" viewBox="0 0 900 1200" fill="none" xmlns="http://www.w3.org/2000/svg">
  <rect width="900" height="1200" rx="40" fill="#101419"/>
  <rect x="56" y="56" width="788" height="1088" rx="34" fill="url(#paint0_linear_203_3)"/>
  <rect x="140" y="348" width="188" height="560" rx="26" fill="#24303A"/>
  <rect x="360" y="246" width="178" height="662" rx="26" fill="#1A232A"/>
  <rect x="570" y="412" width="194" height="496" rx="26" fill="#283842"/>
  <rect x="186" y="404" width="96" height="24" rx="12" fill="#56C7BE"/>
  <rect x="404" y="316" width="90" height="22" rx="11" fill="#F08A5B"/>
  <rect x="618" y="478" width="100" height="24" rx="12" fill="#F3D06C"/>
  <path d="M122 1038H778" stroke="#F4E9D8" stroke-width="18" stroke-linecap="round" stroke-opacity="0.18"/>
  <path d="M430 882C448.667 845.333 470.333 827 495 827C519.667 827 542.333 845.333 563 882" stroke="#F4E9D8" stroke-width="12" stroke-linecap="round"/>
  <circle cx="434" cy="786" r="34" fill="#F4E9D8"/>
  <defs>
    <linearGradient id="paint0_linear_203_3" x1="96" y1="90" x2="804" y2="1112" gradientUnits="userSpaceOnUse">
      <stop stop-color="#0E2C31"/>
      <stop offset="1" stop-color="#090D11"/>
    </linearGradient>
  </defs>
</svg>
