<svg width="900" height="1200" viewBox="0 0 900 1200" fill="none" xmlns="http://www.w3.org/2000/svg">
  <rect width="900" height="1200" rx="40" fill="#13222B"/>
  <rect x="56" y="56" width="788" height="1088" rx="34" fill="url(#paint0_linear_205_3)"/>
  <circle cx="632" cy="254" r="102" fill="#FFD49B"/>
  <path d="M128 700C198 636 296 618 422 646C548 674 644 658 710 598V1142H128V700Z" fill="#1C4856"/>
  <path d="M128 824C236 752 346 734 458 770C570 806 654 796 710 740V1142H128V824Z" fill="#68A89C"/>
  <path d="M128 914C218 878 320 872 434 896C548 920 640 918 710 890V1142H128V914Z" fill="#F0E7D6"/>
  <rect x="132" y="118" width="190" height="18" rx="9" fill="#F4EBDB" fill-opacity="0.38"/>
  <defs>
    <linearGradient id="paint0_linear_205_3" x1="90" y1="96" x2="816" y2="1116" gradientUnits="userSpaceOnUse">
      <stop stop-color="#2A5A69"/>
      <stop offset="1" stop-color="#10171C"/>
    </linearGradient>
  </defs>
</svg>
