<svg width="1200" height="760" viewBox="0 0 1200 760" fill="none" xmlns="http://www.w3.org/2000/svg">
  <rect width="1200" height="760" rx="40" fill="#081C1E"/>
  <rect x="48" y="48" width="1104" height="664" rx="34" fill="url(#paint0_linear_103_2)"/>
  <circle cx="1036" cy="158" r="154" fill="#3CC2B1" fill-opacity="0.15"/>
  <circle cx="182" cy="608" r="184" fill="#F3CC74" fill-opacity="0.14"/>
  <rect x="114" y="110" width="972" height="78" rx="26" fill="#0D3134" fill-opacity="0.92"/>
  <rect x="114" y="230" width="286" height="182" rx="28" fill="#0D3134" fill-opacity="0.94"/>
  <rect x="430" y="230" width="324" height="182" rx="28" fill="#F3CC74" fill-opacity="0.94"/>
  <rect x="784" y="230" width="302" height="182" rx="28" fill="#0D3134" fill-opacity="0.94"/>
  <rect x="114" y="446" width="602" height="196" rx="30" fill="#0D3134" fill-opacity="0.94"/>
  <rect x="746" y="446" width="340" height="196" rx="30" fill="#0D3134" fill-opacity="0.94"/>
  <path d="M168 556L266 496L338 542L454 418L548 462L662 352" stroke="#3CC2B1" stroke-width="22" stroke-linecap="round" stroke-linejoin="round"/>
  <path d="M824 590C847.333 530 883.333 500 932 500C980.667 500 1018.67 530 1046 590" stroke="#F3CC74" stroke-width="18" stroke-linecap="round"/>
  <rect x="160" y="134" width="180" height="24" rx="12" fill="#F5F6F0" fill-opacity="0.86"/>
  <rect x="810" y="134" width="184" height="24" rx="12" fill="#F5F6F0" fill-opacity="0.24"/>
  <defs>
    <linearGradient id="paint0_linear_103_2" x1="70" y1="66" x2="1120" y2="680" gradientUnits="userSpaceOnUse">
      <stop stop-color="#0D2D31"/>
      <stop offset="1" stop-color="#071013"/>
    </linearGradient>
  </defs>
</svg>
