<svg width="1200" height="760" viewBox="0 0 1200 760" fill="none" xmlns="http://www.w3.org/2000/svg">
  <rect width="1200" height="760" rx="40" fill="#1B1310"/>
  <rect x="52" y="52" width="1096" height="656" rx="34" fill="url(#paint0_linear_102_2)"/>
  <circle cx="944" cy="172" r="120" fill="#C96B4B" fill-opacity="0.22"/>
  <circle cx="182" cy="596" r="146" fill="#F7E7D3" fill-opacity="0.08"/>
  <rect x="120" y="120" width="386" height="476" rx="30" fill="#F7E7D3" fill-opacity="0.92"/>
  <rect x="556" y="120" width="524" height="96" rx="26" fill="#F7E7D3" fill-opacity="0.2"/>
  <rect x="556" y="246" width="524" height="36" rx="18" fill="#F7E7D3" fill-opacity="0.24"/>
  <rect x="556" y="304" width="418" height="36" rx="18" fill="#F7E7D3" fill-opacity="0.16"/>
  <rect x="556" y="390" width="238" height="206" rx="26" fill="#C96B4B"/>
  <rect x="824" y="390" width="256" height="96" rx="26" fill="#F7E7D3" fill-opacity="0.9"/>
  <rect x="824" y="510" width="256" height="86" rx="26" fill="#2B3238" fill-opacity="0.8"/>
  <path d="M180 250C180 228.909 197.909 211 219 211H408C429.091 211 447 228.909 447 250V470C447 491.091 429.091 509 408 509H219C197.909 509 180 491.091 180 470V250Z" fill="#C96B4B" fill-opacity="0.22"/>
  <rect x="212" y="240" width="202" height="28" rx="14" fill="#4B241A"/>
  <rect x="212" y="292" width="146" height="12" rx="6" fill="#4B241A" fill-opacity="0.58"/>
  <rect x="212" y="334" width="202" height="128" rx="22" fill="#4B241A" fill-opacity="0.12"/>
  <defs>
    <linearGradient id="paint0_linear_102_2" x1="80" y1="96" x2="1095" y2="670" gradientUnits="userSpaceOnUse">
      <stop stop-color="#281915"/>
      <stop offset="1" stop-color="#0F1114"/>
    </linearGradient>
  </defs>
</svg>
